<svg class="rich-terminal" viewBox="0 0 1116 684.4" xmlns="http://www.w3.org/2000/svg">
    <!-- Generated with Rich https://www.textualize.io -->
    <style>

    @font-face {
        font-family: "Fira Code";
        src: local("FiraCode-Regular"),
                url("https://cdnjs.cloudflare.com/ajax/libs/firacode/6.2.0/woff2/FiraCode-Regular.woff2") format("woff2"),
                url("https://cdnjs.cloudflare.com/ajax/libs/firacode/6.2.0/woff/FiraCode-Regular.woff") format("woff");
        font-style: normal;
        font-weight: 400;
    }
    @font-face {
        font-family: "Fira Code";
        src: local("FiraCode-Bold"),
                url("https://cdnjs.cloudflare.com/ajax/libs/firacode/6.2.0/woff2/FiraCode-Bold.woff2") format("woff2"),
                url("https://cdnjs.cloudflare.com/ajax/libs/firacode/6.2.0/woff/FiraCode-Bold.woff") format("woff");
        font-style: bold;
        font-weight: 700;
    }

    .terminal-matrix {
        font-family: Fira Code, monospace;
        font-size: 20px;
        line-height: 24.4px;
        font-variant-east-asian: full-width;
    }

    .terminal-title {
        font-size: 18px;
        font-weight: bold;
        font-family: arial;
    }

    .terminal-r1 { fill: #c5c8c6 }
.terminal-r2 { fill: #e2e3e5;font-weight: bold }
.terminal-r3 { fill: #a7abaf }
.terminal-r4 { fill: #fea62b }
.terminal-r5 { fill: #e0e0e0;font-weight: bold }
.terminal-r6 { fill: #a0a0a0 }
.terminal-r7 { fill: #fea62b;font-weight: bold }
.terminal-r8 { fill: #e0e0e0 }
.terminal-r9 { fill: #4ebf71;font-weight: bold }
.terminal-r10 { fill: #121212 }
.terminal-r11 { fill: #ffa62b;font-weight: bold }
    </style>

    <defs>
    <clipPath id="terminal-clip-terminal">
      <rect x="0" y="0" width="1097.0" height="633.4" />
    </clipPath>
    <clipPath id="terminal-line-0">
    <rect x="0" y="1.5" width="1098" height="24.65"/>
            </clipPath>
<clipPath id="terminal-line-1">
    <rect x="0" y="25.9" width="1098" height="24.65"/>
            </clipPath>
<clipPath id="terminal-line-2">
    <rect x="0" y="50.3" width="1098" height="24.65"/>
            </clipPath>
<clipPath id="terminal-line-3">
    <rect x="0" y="74.7" width="1098" height="24.65"/>
            </clipPath>
<clipPath id="terminal-line-4">
    <rect x="0" y="99.1" width="1098" height="24.65"/>
            </clipPath>
<clipPath id="terminal-line-5">
    <rect x="0" y="123.5" width="1098" height="24.65"/>
            </clipPath>
<clipPath id="terminal-line-6">
    <rect x="0" y="147.9" width="1098" height="24.65"/>
            </clipPath>
<clipPath id="terminal-line-7">
    <rect x="0" y="172.3" width="1098" height="24.65"/>
            </clipPath>
<clipPath id="terminal-line-8">
    <rect x="0" y="196.7" width="1098" height="24.65"/>
            </clipPath>
<clipPath id="terminal-line-9">
    <rect x="0" y="221.1" width="1098" height="24.65"/>
            </clipPath>
<clipPath id="terminal-line-10">
    <rect x="0" y="245.5" width="1098" height="24.65"/>
            </clipPath>
<clipPath id="terminal-line-11">
    <rect x="0" y="269.9" width="1098" height="24.65"/>
            </clipPath>
<clipPath id="terminal-line-12">
    <rect x="0" y="294.3" width="1098" height="24.65"/>
            </clipPath>
<clipPath id="terminal-line-13">
    <rect x="0" y="318.7" width="1098" height="24.65"/>
            </clipPath>
<clipPath id="terminal-line-14">
    <rect x="0" y="343.1" width="1098" height="24.65"/>
            </clipPath>
<clipPath id="terminal-line-15">
    <rect x="0" y="367.5" width="1098" height="24.65"/>
            </clipPath>
<clipPath id="terminal-line-16">
    <rect x="0" y="391.9" width="1098" height="24.65"/>
            </clipPath>
<clipPath id="terminal-line-17">
    <rect x="0" y="416.3" width="1098" height="24.65"/>
            </clipPath>
<clipPath id="terminal-line-18">
    <rect x="0" y="440.7" width="1098" height="24.65"/>
            </clipPath>
<clipPath id="terminal-line-19">
    <rect x="0" y="465.1" width="1098" height="24.65"/>
            </clipPath>
<clipPath id="terminal-line-20">
    <rect x="0" y="489.5" width="1098" height="24.65"/>
            </clipPath>
<clipPath id="terminal-line-21">
    <rect x="0" y="513.9" width="1098" height="24.65"/>
            </clipPath>
<clipPath id="terminal-line-22">
    <rect x="0" y="538.3" width="1098" height="24.65"/>
            </clipPath>
<clipPath id="terminal-line-23">
    <rect x="0" y="562.7" width="1098" height="24.65"/>
            </clipPath>
<clipPath id="terminal-line-24">
    <rect x="0" y="587.1" width="1098" height="24.65"/>
            </clipPath>
    </defs>

    <rect fill="#292929" stroke="rgba(255,255,255,0.35)" stroke-width="1" x="1" y="1" width="1114" height="682.4" rx="8"/><text class="terminal-title" fill="#c5c8c6" text-anchor="middle" x="557" y="27">WAI</text>
            <g transform="translate(26,22)">
            <circle cx="0" cy="0" r="7" fill="#ff5f57"/>
            <circle cx="22" cy="0" r="7" fill="#febc2e"/>
            <circle cx="44" cy="0" r="7" fill="#28c840"/>
            </g>
        
    <g transform="translate(9, 41)" clip-path="url(#terminal-clip-terminal)">
    <rect fill="#242f38" x="0" y="1.5" width="12.2" height="24.65" shape-rendering="crispEdges"/><rect fill="#242f38" x="12.2" y="1.5" width="329.4" height="24.65" shape-rendering="crispEdges"/><rect fill="#242f38" x="341.6" y="1.5" width="475.8" height="24.65" shape-rendering="crispEdges"/><rect fill="#242f38" x="817.4" y="1.5" width="158.6" height="24.65" shape-rendering="crispEdges"/><rect fill="#242f38" x="976" y="1.5" width="24.4" height="24.65" shape-rendering="crispEdges"/><rect fill="#242f38" x="1000.4" y="1.5" width="0" height="24.65" shape-rendering="crispEdges"/><rect fill="#242f38" x="1000.4" y="1.5" width="24.4" height="24.65" shape-rendering="crispEdges"/><rect fill="#242f38" x="1024.8" y="1.5" width="61" height="24.65" shape-rendering="crispEdges"/><rect fill="#242f38" x="1085.8" y="1.5" width="12.2" height="24.65" shape-rendering="crispEdges"/><rect fill="#121212" x="0" y="25.9" width="1098" height="24.65" shape-rendering="crispEdges"/><rect fill="#121212" x="0" y="50.3" width="24.4" height="24.65" shape-rendering="crispEdges"/><rect fill="#121212" x="24.4" y="50.3" width="12.2" height="24.65" shape-rendering="crispEdges"/><rect fill="#121212" x="36.6" y="50.3" width="12.2" height="24.65" shape-rendering="crispEdges"/><rect fill="#121212" x="48.8" y="50.3" width="390.4" height="24.65" shape-rendering="crispEdges"/><rect fill="#121212" x="439.2" y="50.3" width="658.8" height="24.65" shape-rendering="crispEdges"/><rect fill="#121212" x="0" y="74.7" width="24.4" height="24.65" shape-rendering="crispEdges"/><rect fill="#121212" x="24.4" y="74.7" width="12.2" height="24.65" shape-rendering="crispEdges"/><rect fill="#121212" x="36.6" y="74.7" width="12.2" height="24.65" shape-rendering="crispEdges"/><rect fill="#121212" x="48.8" y="74.7" width="963.8" height="24.65" shape-rendering="crispEdges"/><rect fill="#121212" x="1012.6" y="74.7" width="85.4" height="24.65" shape-rendering="crispEdges"/><rect fill="#121212" x="0" y="99.1" width="24.4" height="24.65" shape-rendering="crispEdges"/><rect fill="#121212" x="24.4" y="99.1" width="12.2" height="24.65" shape-rendering="crispEdges"/><rect fill="#121212" x="36.6" y="99.1" width="12.2" height="24.65" shape-rendering="crispEdges"/><rect fill="#121212" x="48.8" y="99.1" width="561.2" height="24.65" shape-rendering="crispEdges"/><rect fill="#121212" x="610" y="99.1" width="488" height="24.65" shape-rendering="crispEdges"/><rect fill="#121212" x="0" y="123.5" width="1098" height="24.65" shape-rendering="crispEdges"/><rect fill="#121212" x="0" y="147.9" width="24.4" height="24.65" shape-rendering="crispEdges"/><rect fill="#121212" x="24.4" y="147.9" width="36.6" height="24.65" shape-rendering="crispEdges"/><rect fill="#121212" x="61" y="147.9" width="1037" height="24.65" shape-rendering="crispEdges"/><rect fill="#121212" x="0" y="172.3" width="24.4" height="24.65" shape-rendering="crispEdges"/><rect fill="#121212" x="24.4" y="172.3" width="268.4" height="24.65" shape-rendering="crispEdges"/><rect fill="#121212" x="292.8" y="172.3" width="805.2" height="24.65" shape-rendering="crispEdges"/><rect fill="#121212" x="0" y="196.7" width="1098" height="24.65" shape-rendering="crispEdges"/><rect fill="#121212" x="0" y="221.1" width="1098" height="24.65" shape-rendering="crispEdges"/><rect fill="#121212" x="0" y="245.5" width="24.4" height="24.65" shape-rendering="crispEdges"/><rect fill="#121212" x="24.4" y="245.5" width="109.8" height="24.65" shape-rendering="crispEdges"/><rect fill="#121212" x="134.2" y="245.5" width="963.8" height="24.65" shape-rendering="crispEdges"/><rect fill="#121212" x="0" y="269.9" width="24.4" height="24.65" shape-rendering="crispEdges"/><rect fill="#121212" x="24.4" y="269.9" width="134.2" height="24.65" shape-rendering="crispEdges"/><rect fill="#121212" x="158.6" y="269.9" width="939.4" height="24.65" shape-rendering="crispEdges"/><rect fill="#121212" x="0" y="294.3" width="1098" height="24.65" shape-rendering="crispEdges"/><rect fill="#121212" x="0" y="318.7" width="1098" height="24.65" shape-rendering="crispEdges"/><rect fill="#121212" x="0" y="343.1" width="1098" height="24.65" shape-rendering="crispEdges"/><rect fill="#121212" x="0" y="367.5" width="1098" height="24.65" shape-rendering="crispEdges"/><rect fill="#121212" x="0" y="391.9" width="1098" height="24.65" shape-rendering="crispEdges"/><rect fill="#121212" x="0" y="416.3" width="1098" height="24.65" shape-rendering="crispEdges"/><rect fill="#121212" x="0" y="440.7" width="1098" height="24.65" shape-rendering="crispEdges"/><rect fill="#121212" x="0" y="465.1" width="1098" height="24.65" shape-rendering="crispEdges"/><rect fill="#121212" x="0" y="489.5" width="1098" height="24.65" shape-rendering="crispEdges"/><rect fill="#121212" x="0" y="513.9" width="1098" height="24.65" shape-rendering="crispEdges"/><rect fill="#121212" x="0" y="538.3" width="12.2" height="24.65" shape-rendering="crispEdges"/><rect fill="#1e1e1e" x="12.2" y="538.3" width="1073.6" height="24.65" shape-rendering="crispEdges"/><rect fill="#121212" x="1085.8" y="538.3" width="12.2" height="24.65" shape-rendering="crispEdges"/><rect fill="#121212" x="0" y="562.7" width="12.2" height="24.65" shape-rendering="crispEdges"/><rect fill="#1e1e1e" x="12.2" y="562.7" width="12.2" height="24.65" shape-rendering="crispEdges"/><rect fill="#1e1e1e" x="24.4" y="562.7" width="12.2" height="24.65" shape-rendering="crispEdges"/><rect fill="#e0e0e0" x="36.6" y="562.7" width="12.2" height="24.65" shape-rendering="crispEdges"/><rect fill="#262626" x="48.8" y="562.7" width="1012.6" height="24.65" shape-rendering="crispEdges"/><rect fill="#1e1e1e" x="1061.4" y="562.7" width="12.2" height="24.65" shape-rendering="crispEdges"/><rect fill="#1e1e1e" x="1073.6" y="562.7" width="12.2" height="24.65" shape-rendering="crispEdges"/><rect fill="#121212" x="1085.8" y="562.7" width="12.2" height="24.65" shape-rendering="crispEdges"/><rect fill="#121212" x="0" y="587.1" width="12.2" height="24.65" shape-rendering="crispEdges"/><rect fill="#1e1e1e" x="12.2" y="587.1" width="1073.6" height="24.65" shape-rendering="crispEdges"/><rect fill="#121212" x="1085.8" y="587.1" width="12.2" height="24.65" shape-rendering="crispEdges"/><rect fill="#242f38" x="0" y="611.5" width="48.8" height="24.65" shape-rendering="crispEdges"/><rect fill="#242f38" x="48.8" y="611.5" width="85.4" height="24.65" shape-rendering="crispEdges"/><rect fill="#242f38" x="134.2" y="611.5" width="48.8" height="24.65" shape-rendering="crispEdges"/><rect fill="#242f38" x="183" y="611.5" width="73.2" height="24.65" shape-rendering="crispEdges"/><rect fill="#242f38" x="256.2" y="611.5" width="48.8" height="24.65" shape-rendering="crispEdges"/><rect fill="#242f38" x="305" y="611.5" width="48.8" height="24.65" shape-rendering="crispEdges"/><rect fill="#242f38" x="353.8" y="611.5" width="48.8" height="24.65" shape-rendering="crispEdges"/><rect fill="#242f38" x="402.6" y="611.5" width="61" height="24.65" shape-rendering="crispEdges"/><rect fill="#242f38" x="463.6" y="611.5" width="634.4" height="24.65" shape-rendering="crispEdges"/>
    <g class="terminal-matrix">
    <text class="terminal-r2" x="12.2" y="20" textLength="329.4" clip-path="url(#terminal-line-0)">anthropic&#160;·&#160;claude-sonnet-5</text><text class="terminal-r3" x="817.4" y="20" textLength="158.6" clip-path="url(#terminal-line-0)">11&#160;in&#160;/&#160;3&#160;out</text><text class="terminal-r3" x="1024.8" y="20" textLength="61" clip-path="url(#terminal-line-0)">ready</text><text class="terminal-r1" x="1098" y="20" textLength="12.2" clip-path="url(#terminal-line-0)">
</text><text class="terminal-r1" x="1098" y="44.4" textLength="12.2" clip-path="url(#terminal-line-1)">
</text><text class="terminal-r4" x="24.4" y="68.8" textLength="12.2" clip-path="url(#terminal-line-2)">█</text><text class="terminal-r5" x="48.8" y="68.8" textLength="390.4" clip-path="url(#terminal-line-2)">No&#160;credentials&#160;for&#160;this&#160;provider</text><text class="terminal-r1" x="1098" y="68.8" textLength="12.2" clip-path="url(#terminal-line-2)">
</text><text class="terminal-r4" x="24.4" y="93.2" textLength="12.2" clip-path="url(#terminal-line-3)">█</text><text class="terminal-r6" x="48.8" y="93.2" textLength="963.8" clip-path="url(#terminal-line-3)">The&#160;session&#160;is&#160;set&#160;to&#160;anthropic,&#160;which&#160;has&#160;no&#160;credentials.&#160;Configured:&#160;bedrock.</text><text class="terminal-r1" x="1098" y="93.2" textLength="12.2" clip-path="url(#terminal-line-3)">
</text><text class="terminal-r4" x="24.4" y="117.6" textLength="12.2" clip-path="url(#terminal-line-4)">█</text><text class="terminal-r6" x="48.8" y="117.6" textLength="561.2" clip-path="url(#terminal-line-4)">Run&#160;/setup&#160;anthropic,&#160;or&#160;/provider&#160;use&#160;&lt;name&gt;.</text><text class="terminal-r1" x="1098" y="117.6" textLength="12.2" clip-path="url(#terminal-line-4)">
</text><text class="terminal-r1" x="1098" y="142" textLength="12.2" clip-path="url(#terminal-line-5)">
</text><text class="terminal-r7" x="24.4" y="166.4" textLength="36.6" clip-path="url(#terminal-line-6)">you</text><text class="terminal-r1" x="1098" y="166.4" textLength="12.2" clip-path="url(#terminal-line-6)">
</text><text class="terminal-r8" x="24.4" y="190.8" textLength="268.4" clip-path="url(#terminal-line-7)">how&#160;do&#160;I&#160;drain&#160;a&#160;node?</text><text class="terminal-r1" x="1098" y="190.8" textLength="12.2" clip-path="url(#terminal-line-7)">
</text><text class="terminal-r1" x="1098" y="215.2" textLength="12.2" clip-path="url(#terminal-line-8)">
</text><text class="terminal-r1" x="1098" y="239.6" textLength="12.2" clip-path="url(#terminal-line-9)">
</text><text class="terminal-r9" x="24.4" y="264" textLength="109.8" clip-path="url(#terminal-line-10)">assistant</text><text class="terminal-r1" x="1098" y="264" textLength="12.2" clip-path="url(#terminal-line-10)">
</text><text class="terminal-r8" x="24.4" y="288.4" textLength="134.2" clip-path="url(#terminal-line-11)">Hellothere.</text><text class="terminal-r1" x="1098" y="288.4" textLength="12.2" clip-path="url(#terminal-line-11)">
</text><text class="terminal-r1" x="1098" y="312.8" textLength="12.2" clip-path="url(#terminal-line-12)">
</text><text class="terminal-r1" x="1098" y="337.2" textLength="12.2" clip-path="url(#terminal-line-13)">
</text><text class="terminal-r1" x="1098" y="361.6" textLength="12.2" clip-path="url(#terminal-line-14)">
</text><text class="terminal-r1" x="1098" y="386" textLength="12.2" clip-path="url(#terminal-line-15)">
</text><text class="terminal-r1" x="1098" y="410.4" textLength="12.2" clip-path="url(#terminal-line-16)">
</text><text class="terminal-r1" x="1098" y="434.8" textLength="12.2" clip-path="url(#terminal-line-17)">
</text><text class="terminal-r1" x="1098" y="459.2" textLength="12.2" clip-path="url(#terminal-line-18)">
</text><text class="terminal-r1" x="1098" y="483.6" textLength="12.2" clip-path="url(#terminal-line-19)">
</text><text class="terminal-r1" x="1098" y="508" textLength="12.2" clip-path="url(#terminal-line-20)">
</text><text class="terminal-r1" x="1098" y="532.4" textLength="12.2" clip-path="url(#terminal-line-21)">
</text><text class="terminal-r4" x="12.2" y="556.8" textLength="1073.6" clip-path="url(#terminal-line-22)">╭──────────────────────────────────────────────────────────────────────────────────────╮</text><text class="terminal-r1" x="1098" y="556.8" textLength="12.2" clip-path="url(#terminal-line-22)">
</text><text class="terminal-r4" x="12.2" y="581.2" textLength="12.2" clip-path="url(#terminal-line-23)">│</text><text class="terminal-r4" x="1073.6" y="581.2" textLength="12.2" clip-path="url(#terminal-line-23)">│</text><text class="terminal-r1" x="1098" y="581.2" textLength="12.2" clip-path="url(#terminal-line-23)">
</text><text class="terminal-r4" x="12.2" y="605.6" textLength="1073.6" clip-path="url(#terminal-line-24)">╰──────────────────────────────────────────────────────────────────────────────────────╯</text><text class="terminal-r1" x="1098" y="605.6" textLength="12.2" clip-path="url(#terminal-line-24)">
</text><text class="terminal-r11" x="0" y="630" textLength="48.8" clip-path="url(#terminal-line-25)">&#160;^c&#160;</text><text class="terminal-r8" x="48.8" y="630" textLength="85.4" clip-path="url(#terminal-line-25)">Cancel&#160;</text><text class="terminal-r11" x="134.2" y="630" textLength="48.8" clip-path="url(#terminal-line-25)">&#160;^p&#160;</text><text class="terminal-r8" x="183" y="630" textLength="73.2" clip-path="url(#terminal-line-25)">Model&#160;</text><text class="terminal-r11" x="256.2" y="630" textLength="48.8" clip-path="url(#terminal-line-25)">&#160;^n&#160;</text><text class="terminal-r8" x="305" y="630" textLength="48.8" clip-path="url(#terminal-line-25)">New&#160;</text><text class="terminal-r11" x="353.8" y="630" textLength="48.8" clip-path="url(#terminal-line-25)">&#160;^q&#160;</text><text class="terminal-r8" x="402.6" y="630" textLength="61" clip-path="url(#terminal-line-25)">Quit&#160;</text>
    </g>
    </g>
</svg>
